<svg width="107" height="56" viewBox="0 0 107 56" fill="none" xmlns="http://www.w3.org/2000/svg">
<path fill-rule="evenodd" clip-rule="evenodd" d="M60.0106 38.7254V17.2746H63.03V38.7254H60.0106ZM44.7249 38.7254V17.2746C46.8007 17.2746 48.8765 17.2746 50.9524 17.2746C53.5944 17.2746 55.6702 19.3627 55.6702 22.0203V38.7254H52.8395V22.0203C52.8395 21.0712 52.0847 20.122 50.9524 20.122C49.8201 20.122 48.8765 20.122 47.7443 20.122V38.7254H44.7249ZM21.8907 38.7254C19.2487 38.7254 17.1728 36.6373 17.1728 33.9797V22.2102C17.1728 19.5525 19.2487 17.4644 21.8907 17.4644H26.231V20.5017H21.8907C20.9471 20.5017 20.0035 21.261 20.0035 22.4V34.1695C20.0035 35.1186 20.7584 36.0678 21.8907 36.0678H26.231V38.7333H21.8652L21.8907 38.7254ZM37.5538 27.9051V22.0203C37.5538 21.0712 36.7989 20.122 35.6667 20.122H34.3457C33.4021 20.122 32.4586 20.8814 32.4586 22.0203V27.9051H37.5538ZM86.8078 30.9424H81.7125V38.7254H78.6931V22.0203C78.6931 19.3627 80.769 17.2746 83.4109 17.2746H84.7319C87.3739 17.2746 89.4497 19.3627 89.4497 22.0203V38.7254H86.8078V30.9424ZM81.9012 27.9051H86.8078V22.0203C86.8078 21.0712 86.0529 20.122 84.9206 20.122H83.5996C82.6561 20.122 81.7125 20.8814 81.7125 22.0203V27.9051H81.9012ZM70.3898 27.9051H75.6737V30.9424H70.3898V38.7254H67.3704V30.9424V27.9051V22.0203C67.3704 19.3627 69.4462 17.2746 72.0882 17.2746H75.6737V20.3119H72.0882C71.1446 20.3119 70.201 21.0712 70.201 22.2102V27.9051H70.3898ZM29.4392 38.7254V22.0203C29.4392 19.3627 31.515 17.2746 34.157 17.2746H35.478C38.1199 17.2746 40.1958 19.3627 40.1958 22.0203V38.7254H37.1764V30.9424H32.0811V38.7254H29.4392ZM0 0H107V56H0V0Z" fill="#E2231A"/>
</svg>
